<svg width="24.000000" height="24.000000" viewBox="0 0 24 24" fill="none" xmlns="http://www.w3.org/2000/svg" xmlns:xlink="http://www.w3.org/1999/xlink">
	<desc>
			Created with Pixso.
	</desc>
	<defs>
		<clipPath id="clip1_154">
			<rect id="list--boxes 1" rx="-0.500000" width="23.000000" height="23.000000" transform="translate(0.500000 0.500000)" fill="white" fill-opacity="0"/>
		</clipPath>
	</defs>
	<rect id="list--boxes 1" rx="-0.500000" width="23.000000" height="23.000000" transform="translate(0.500000 0.500000)" fill="#FFFFFF" fill-opacity="0"/>
	<g clip-path="url(#clip1_154)">
		<path id="Vector" d="M12 6L22.5 6L22.5 7.5L12 7.5L12 6Z" fill="#FFFFFF" fill-opacity="1.000000" fill-rule="evenodd"/>
		<path id="Vector" d="M12 16.5L22.5 16.5L22.5 18L12 18L12 16.5Z" fill="#FFFFFF" fill-opacity="1.000000" fill-rule="evenodd"/>
		<path id="Vector" d="M7.5 10.5L3 10.5C2.6 10.49 2.22 10.34 1.93 10.06C1.65 9.77 1.5 9.39 1.5 9L1.5 4.5C1.5 4.1 1.65 3.72 1.93 3.43C2.22 3.15 2.6 3 3 3L7.5 3C7.89 3 8.27 3.15 8.56 3.43C8.84 3.72 8.99 4.1 9 4.5L9 9C8.99 9.39 8.84 9.77 8.56 10.06C8.27 10.34 7.89 10.49 7.5 10.5ZM3 4.5L3 9L7.5 9L7.5 4.5L3 4.5Z" fill="#FFFFFF" fill-opacity="1.000000" fill-rule="nonzero"/>
		<path id="Vector" d="M7.5 21L3 21C2.6 20.99 2.22 20.84 1.93 20.56C1.65 20.27 1.5 19.89 1.5 19.5L1.5 15C1.5 14.6 1.65 14.22 1.93 13.93C2.22 13.65 2.6 13.5 3 13.5L7.5 13.5C7.89 13.5 8.27 13.65 8.56 13.93C8.84 14.22 8.99 14.6 9 15L9 19.5C8.99 19.89 8.84 20.27 8.56 20.56C8.27 20.84 7.89 20.99 7.5 21ZM3 15L3 19.5L7.5 19.5L7.5 15L3 15Z" fill="#FFFFFF" fill-opacity="1.000000" fill-rule="nonzero"/>
	</g>
</svg>
